<?xml version="1.0" standalone="no"?>
<!DOCTYPE svg PUBLIC "-//W3C//DTD SVG 20010904//EN"
 "http://www.w3.org/TR/2001/REC-SVG-20010904/DTD/svg10.dtd">
<svg version="1.0" xmlns="http://www.w3.org/2000/svg"
 width="225.000000pt" height="225.000000pt" viewBox="0 0 225.000000 225.000000"
 preserveAspectRatio="xMidYMid meet">

<g transform="translate(0.000000,225.000000) scale(0.100000,-0.100000)"
fill="#000000" stroke="none">
<path d="M1060 1874 c-142 -38 -220 -131 -220 -262 0 -87 23 -143 81 -197 65
-61 108 -78 194 -79 63 0 80 4 171 47 85 40 109 47 162 47 80 0 163 -31 220
-83 54 -51 78 -95 93 -181 10 -53 20 -75 46 -103 19 -19 45 -56 58 -82 13 -25
25 -39 25 -31 1 8 5 53 10 100 15 160 -18 325 -92 447 -125 208 -317 341 -552
382 -78 14 -129 13 -196 -5z m157 -75 c71 -34 123 -115 123 -190 0 -91 -77
-187 -168 -209 -163 -39 -311 134 -246 288 47 112 182 164 291 111z"/>
<path d="M762 1805 c-159 -80 -266 -179 -336 -315 -73 -141 -102 -272 -93
-419 18 -290 168 -495 361 -495 106 1 194 54 240 146 36 72 37 178 2 246 -26
51 -91 114 -171 166 -55 35 -109 106 -125 164 -5 20 -10 67 -10 103 0 90 41
174 113 231 42 33 54 50 69 96 9 31 26 68 37 83 39 52 28 52 -87 -6z"/>
<path d="M1461 1034 c-73 -37 -104 -86 -109 -173 -3 -55 1 -74 21 -111 71
-133 267 -142 354 -17 25 35 28 50 28 117 0 66 -4 82 -27 117 -33 50 -113 93
-173 93 -24 0 -63 -11 -94 -26z"/>
</g>
</svg>
